<?xml version="1.0" encoding="UTF-8"?>
<!DOCTYPE svg PUBLIC "-//W3C//DTD SVG 1.1//EN" "http://www.w3.org/Graphics/SVG/1.1/DTD/svg11.dtd">
<!-- Creator: CorelDRAW X5 -->
<svg xmlns="http://www.w3.org/2000/svg" xml:space="preserve" width="2.42163in" height="2.47103in" style="shape-rendering:geometricPrecision; text-rendering:geometricPrecision; image-rendering:optimizeQuality; fill-rule:evenodd; clip-rule:evenodd"
viewBox="0 0 2422 2471"
 xmlns:xlink="http://www.w3.org/1999/xlink">
 <defs>
  <style type="text/css">
   <![CDATA[
    .fil0 {fill:#77250F;fill-rule:nonzero}
    .fil2 {fill:url(#id0)}
    .fil3 {fill:url(#id1)}
    .fil1 {fill:url(#id2)}
   ]]>
  </style>
  <linearGradient id="id0" gradientUnits="userSpaceOnUse" x1="1152.31" y1="561.753" x2="2046.52" y2="1269.5">
   <stop offset="0" style="stop-color:#B4906C"/>
   <stop offset="0.501961" style="stop-color:#FFEEBB"/>
   <stop offset="1" style="stop-color:#BB8A65"/>
  </linearGradient>
  <linearGradient id="id1" gradientUnits="userSpaceOnUse" x1="955.116" y1="1939.26" x2="2014.15" y2="1517.57">
   <stop offset="0" style="stop-color:#B4906C"/>
   <stop offset="0.490196" style="stop-color:#FFEEBB"/>
   <stop offset="1" style="stop-color:#BB8A65"/>
  </linearGradient>
  <linearGradient id="id2" gradientUnits="userSpaceOnUse" xlink:href="#id0" x1="698.352" y1="1772.1" x2="860.635" y2="667.651">
  </linearGradient>
 </defs>
 <g id="Layer_x0020_1">
  <metadata id="CorelCorpID_0Corel-Layer"/>
  <g id="_198891272">
   <path class="fil0" d="M1957 2174c77,-36 136,-87 177,-145 39,-56 61,-119 65,-182 4,-63 -9,-127 -39,-185 -50,-96 -149,-177 -299,-217 -213,-58 -352,-181 -425,-328 -47,-97 -66,-202 -57,-305 9,-103 44,-204 104,-293 64,-96 157,-178 275,-230 -62,-39 -129,-60 -195,-64 -69,-5 -137,8 -197,36 -59,28 -110,70 -147,125 -58,86 -80,206 -41,351 57,215 23,403 -65,543 -57,91 -138,162 -231,208 -93,46 -198,66 -306,57 -118,-10 -240,-55 -351,-141 -7,84 7,160 37,224 29,62 73,112 125,147 53,35 114,56 180,59 108,4 228,-41 339,-151 156,-156 333,-215 496,-204 107,7 207,45 293,104 85,59 155,140 202,236 52,105 76,227 62,356zm359 -18c-99,143 -267,254 -499,287l-194 28 77 -181c58,-138 49,-270 -3,-375 -31,-62 -76,-115 -130,-152 -53,-37 -115,-60 -181,-65 -104,-7 -218,33 -325,140 -158,157 -337,221 -503,215 -108,-4 -209,-38 -295,-96 -86,-58 -156,-139 -203,-237 -74,-157 -86,-358 1,-575l71 -179 119 151c103,131 226,195 342,204 68,6 134,-7 191,-35 57,-28 105,-71 141,-127 58,-91 79,-218 39,-369 -57,-213 -19,-395 72,-531 60,-89 142,-157 237,-202 94,-44 199,-64 305,-57 177,12 356,97 488,273l116 153 -191 24c-148,18 -258,93 -323,189 -38,57 -61,122 -66,188 -6,66 5,131 34,190 46,93 138,172 283,211 215,58 361,181 438,328 50,95 71,200 65,303 -7,103 -42,205 -104,294z"/>
   <path class="fil1" d="M912 1673c-97,-100 -156,-237 -156,-387 0,-180 85,-340 218,-442 -3,-17 -7,-35 -12,-53 -12,-45 -20,-89 -24,-131 -212,128 -354,360 -354,626 0,190 73,363 191,492 43,-24 87,-56 129,-98 3,-3 5,-5 8,-8z"/>
   <path class="fil2" d="M2043 1274c-7,-397 -331,-717 -729,-717 -53,0 -105,6 -156,17 -2,49 3,103 19,161 1,3 2,7 3,10 43,-11 88,-16 134,-16 283,0 517,211 553,484 16,6 33,11 51,16 45,12 87,27 125,44z"/>
   <path class="fil3" d="M1314 2016c326,0 602,-214 695,-509 -42,-26 -92,-47 -149,-62 -4,-1 -7,-2 -11,-3 -67,233 -281,403 -536,403 -76,0 -147,-15 -213,-42 -13,11 -27,23 -40,36 -33,33 -67,61 -101,86 105,58 225,92 354,92z"/>
  </g>
 </g>
</svg>
