<?xml version="1.0" encoding="UTF-8" standalone="no"?>
<!-- Creator: CorelDRAW X5 -->

<svg
   xmlns:dc="http://purl.org/dc/elements/1.1/"
   xmlns:cc="http://creativecommons.org/ns#"
   xmlns:rdf="http://www.w3.org/1999/02/22-rdf-syntax-ns#"
   xmlns:svg="http://www.w3.org/2000/svg"
   xmlns="http://www.w3.org/2000/svg"
   xmlns:xlink="http://www.w3.org/1999/xlink"
   xmlns:sodipodi="http://sodipodi.sourceforge.net/DTD/sodipodi-0.dtd"
   xmlns:inkscape="http://www.inkscape.org/namespaces/inkscape"
   xml:space="preserve"
   width="154.24695"
   height="32.000008"
   style="fill-rule:evenodd"
   viewBox="0 0 1714.117 355.55132"
   id="svg2"
   version="1.1"
   inkscape:version="0.48.4 r9939"
   sodipodi:docname="OshbLogo.svg"><metadata
   id="metadata36"><rdf:RDF><cc:Work
       rdf:about=""><dc:format>image/svg+xml</dc:format><dc:type
         rdf:resource="http://purl.org/dc/dcmitype/StillImage" /><dc:title /></cc:Work></rdf:RDF></metadata><sodipodi:namedview
   pagecolor="#ffffff"
   bordercolor="#666666"
   borderopacity="1"
   objecttolerance="10"
   gridtolerance="10"
   guidetolerance="10"
   inkscape:pageopacity="0"
   inkscape:pageshadow="2"
   inkscape:window-width="763"
   inkscape:window-height="686"
   id="namedview34"
   showgrid="false"
   inkscape:zoom="2.2347856"
   inkscape:cx="93.302031"
   inkscape:cy="93.260848"
   inkscape:window-x="0"
   inkscape:window-y="0"
   inkscape:window-maximized="0"
   inkscape:current-layer="svg2"
   fit-margin-top="0"
   fit-margin-left="0"
   fit-margin-right="0"
   fit-margin-bottom="0" />
 <defs
   id="defs4">
  <style
   type="text/css"
   id="style6">
   
    .fil0 {fill:#77250F;fill-rule:nonzero}
    .fil2 {fill:url(#id0)}
    .fil3 {fill:url(#id1)}
    .fil1 {fill:url(#id2)}
   
  </style>
  <linearGradient
   id="id0"
   gradientUnits="userSpaceOnUse"
   x1="1152.3101"
   y1="561.75299"
   x2="2046.52"
   y2="1269.5">
   <stop
   offset="0"
   style="stop-color:#B4906C"
   id="stop9" />
   <stop
   offset="0.501961"
   style="stop-color:#FFEEBB"
   id="stop11" />
   <stop
   offset="1"
   style="stop-color:#BB8A65"
   id="stop13" />
  </linearGradient>
  <linearGradient
   id="id1"
   gradientUnits="userSpaceOnUse"
   x1="955.11603"
   y1="1939.26"
   x2="2014.15"
   y2="1517.5699">
   <stop
   offset="0"
   style="stop-color:#B4906C"
   id="stop16" />
   <stop
   offset="0.490196"
   style="stop-color:#FFEEBB"
   id="stop18" />
   <stop
   offset="1"
   style="stop-color:#BB8A65"
   id="stop20" />
  </linearGradient>
  <linearGradient
   id="id2"
   gradientUnits="userSpaceOnUse"
   xlink:href="#id0"
   x1="698.35199"
   y1="1772.1"
   x2="860.63501"
   y2="667.651">
  </linearGradient>
 <linearGradient
   inkscape:collect="always"
   xlink:href="#id0"
   id="linearGradient3013"
   gradientUnits="userSpaceOnUse"
   x1="1152.3101"
   y1="561.75299"
   x2="2046.52"
   y2="1269.5" /></defs>
 <g
   id="Layer_x0020_1"
   transform="matrix(0.14383374,0,0,0.14383374,-0.00787133,-0.00702117)">
  <metadata
   id="CorelCorpID_0Corel-Layer" />
  <g
   id="_198891272">
   <path
   class="fil0"
   d="m 1957,2174 c 77,-36 136,-87 177,-145 39,-56 61,-119 65,-182 4,-63 -9,-127 -39,-185 -50,-96 -149,-177 -299,-217 -213,-58 -352,-181 -425,-328 -47,-97 -66,-202 -57,-305 9,-103 44,-204 104,-293 64,-96 157,-178 275,-230 -62,-39 -129,-60 -195,-64 -69,-5 -137,8 -197,36 -59,28 -110,70 -147,125 -58,86 -80,206 -41,351 57,215 23,403 -65,543 -57,91 -138,162 -231,208 -93,46 -198,66 -306,57 -118,-10 -240,-55 -351,-141 -7,84 7,160 37,224 29,62 73,112 125,147 53,35 114,56 180,59 108,4 228,-41 339,-151 156,-156 333,-215 496,-204 107,7 207,45 293,104 85,59 155,140 202,236 52,105 76,227 62,356 z m 359,-18 c -99,143 -267,254 -499,287 l -194,28 77,-181 c 58,-138 49,-270 -3,-375 -31,-62 -76,-115 -130,-152 -53,-37 -115,-60 -181,-65 -104,-7 -218,33 -325,140 -158,157 -337,221 -503,215 -108,-4 -209,-38 -295,-96 -86,-58 -156,-139 -203,-237 -74,-157 -86,-358 1,-575 l 71,-179 119,151 c 103,131 226,195 342,204 68,6 134,-7 191,-35 57,-28 105,-71 141,-127 58,-91 79,-218 39,-369 -57,-213 -19,-395 72,-531 60,-89 142,-157 237,-202 94,-44 199,-64 305,-57 177,12 356,97 488,273 l 116,153 -191,24 c -148,18 -258,93 -323,189 -38,57 -61,122 -66,188 -6,66 5,131 34,190 46,93 138,172 283,211 215,58 361,181 438,328 50,95 71,200 65,303 -7,103 -42,205 -104,294 z"
   id="path26"
   inkscape:connector-curvature="0"
   style="fill:#77250f;fill-rule:nonzero" />
   <path
   class="fil1"
   d="m 912,1673 c -97,-100 -156,-237 -156,-387 0,-180 85,-340 218,-442 -3,-17 -7,-35 -12,-53 -12,-45 -20,-89 -24,-131 -212,128 -354,360 -354,626 0,190 73,363 191,492 43,-24 87,-56 129,-98 3,-3 5,-5 8,-8 z"
   id="path28"
   style="fill:url(#id2)"
   inkscape:connector-curvature="0" />
   <path
   class="fil2"
   d="m 2043,1274 c -7,-397 -331,-717 -729,-717 -53,0 -105,6 -156,17 -2,49 3,103 19,161 1,3 2,7 3,10 43,-11 88,-16 134,-16 283,0 517,211 553,484 16,6 33,11 51,16 45,12 87,27 125,44 z"
   id="path30"
   style="fill:url(#linearGradient3013)"
   inkscape:connector-curvature="0" />
   <path
   class="fil3"
   d="m 1314,2016 c 326,0 602,-214 695,-509 -42,-26 -92,-47 -149,-62 -4,-1 -7,-2 -11,-3 -67,233 -281,403 -536,403 -76,0 -147,-15 -213,-42 -13,11 -27,23 -40,36 -33,33 -67,61 -101,86 105,58 225,92 354,92 z"
   id="path32"
   style="fill:url(#id1)"
   inkscape:connector-curvature="0" />
  </g>
 </g>
<text
   xml:space="preserve"
   style="font-size:222.25617981px;font-style:normal;font-variant:normal;font-weight:normal;font-stretch:normal;text-align:start;line-height:100%;letter-spacing:0px;word-spacing:0px;writing-mode:lr-tb;text-anchor:start;fill:#77250f;fill-opacity:1;stroke:none;font-family:Palatino Linotype;-inkscape-font-specification:Palatino Linotype"
   x="377.86676"
   y="133.31651"
   id="text3015"
   sodipodi:linespacing="100%"><tspan
     sodipodi:role="line"
     id="tspan3017"
     x="377.86676"
     y="133.31651"
     style="font-size:133.35371399px;font-style:normal;font-variant:normal;font-weight:normal;font-stretch:normal;text-align:start;line-height:100%;writing-mode:lr-tb;text-anchor:start;fill:#77250f;fill-opacity:1;font-family:Palatino Linotype;-inkscape-font-specification:Palatino Linotype">The OpenScriptures</tspan><tspan
     sodipodi:role="line"
     x="377.86676"
     y="314.84714"
     id="tspan3019"
     style="font-size:222.25619507px">Hebrew Bible</tspan></text>

</svg>